<svg xmlns="http://www.w3.org/2000/svg" style="display:none">
  <symbol id="i-plus" viewBox="0 0 24 24">&#x9;<path d="M11 12.5V17.5H12.5V12.5H17.5V11H12.5V6H11V11H6V12.5H11Z"></path></symbol>
  <symbol id="i-pencil" viewBox="0 0 24 24">&#x9;<path d="m19 7-3-3-8.5 8.5-1 4 4-1L19 7Zm-7 11.5H5V20h7v-1.5Z"></path></symbol>
  <symbol id="i-trash" viewBox="0 0 24 24">&#x9;<path fill-rule="evenodd" clip-rule="evenodd" d="M12 5.5A2.25 2.25 0 0 0 9.878 7h4.244A2.251 2.251 0 0 0 12 5.5ZM12 4a3.751 3.751 0 0 0-3.675 3H5v1.5h1.27l.818 8.997a2.75 2.75 0 0 0 2.739 2.501h4.347a2.75 2.75 0 0 0 2.738-2.5L17.73 8.5H19V7h-3.325A3.751 3.751 0 0 0 12 4Zm4.224 4.5H7.776l.806 8.861a1.25 1.25 0 0 0 1.245 1.137h4.347a1.25 1.25 0 0 0 1.245-1.137l.805-8.861Z"></path></symbol>
  <symbol id="i-cog" viewBox="0 0 24 24">&#x9;<path fill-rule="evenodd" clip-rule="evenodd" d="M10.289 4.836A1 1 0 0111.275 4h1.306a1 1 0 01.987.836l.244 1.466c.787.26 1.503.679 2.108 1.218l1.393-.522a1 1 0 011.216.437l.653 1.13a1 1 0 01-.23 1.273l-1.148.944a6.025 6.025 0 010 2.435l1.149.946a1 1 0 01.23 1.272l-.653 1.13a1 1 0 01-1.216.437l-1.394-.522c-.605.54-1.32.958-2.108 1.218l-.244 1.466a1 1 0 01-.987.836h-1.306a1 1 0 01-.986-.836l-.244-1.466a5.995 5.995 0 01-2.108-1.218l-1.394.522a1 1 0 01-1.217-.436l-.653-1.131a1 1 0 01.23-1.272l1.149-.946a6.026 6.026 0 010-2.435l-1.148-.944a1 1 0 01-.23-1.272l.653-1.131a1 1 0 011.217-.437l1.393.522a5.994 5.994 0 012.108-1.218l.244-1.466zM14.929 12a3 3 0 11-6 0 3 3 0 016 0z"></path></symbol>
  <symbol id="i-search" viewBox="0 0 24 24">&#x9;<path d="M13 5c-3.3 0-6 2.7-6 6 0 1.4.5 2.7 1.3 3.7l-3.8 3.8 1.1 1.1 3.8-3.8c1 .8 2.3 1.3 3.7 1.3 3.3 0 6-2.7 6-6S16.3 5 13 5zm0 10.5c-2.5 0-4.5-2-4.5-4.5s2-4.5 4.5-4.5 4.5 2 4.5 4.5-2 4.5-4.5 4.5z"></path></symbol>
  <symbol id="i-bell" viewBox="0 0 24 24">&#x9;<path fill-rule="evenodd" clip-rule="evenodd" d="M17 11.5c0 1.353.17 2.368.976 3 .266.209.602.376 1.024.5v1H5v-1c.422-.124.757-.291 1.024-.5.806-.632.976-1.647.976-3V9c0-2.8 2.2-5 5-5s5 2.2 5 5v2.5ZM15.5 9v2.5c0 .93.066 1.98.515 2.897l.053.103H7.932a4.018 4.018 0 0 0 .053-.103c.449-.917.515-1.967.515-2.897V9c0-1.972 1.528-3.5 3.5-3.5s3.5 1.528 3.5 3.5Zm-5.492 9.008c0-.176.023-.346.065-.508h3.854A1.996 1.996 0 0 1 12 20c-1.1 0-1.992-.892-1.992-1.992Z"></path></symbol>
  <symbol id="i-image" viewBox="0 0 24 24">&#x9;<path d="M19 3H5c-1.1 0-2 .9-2 2v14c0 1.1.9 2 2 2h14c1.1 0 2-.9 2-2V5c0-1.1-.9-2-2-2zM5 4.5h14c.3 0 .5.2.5.5v8.4l-3-2.9c-.3-.3-.8-.3-1 0L11.9 14 9 12c-.3-.2-.6-.2-.8 0l-3.6 2.6V5c-.1-.3.1-.5.4-.5zm14 15H5c-.3 0-.5-.2-.5-.5v-2.4l4.1-3 3 1.9c.3.2.7.2.9-.1L16 12l3.5 3.4V19c0 .3-.2.5-.5.5z"></path></symbol>
  <symbol id="i-page" viewBox="0 0 24 24">&#x9;<path d="M15.5 7.5h-7V9h7V7.5Zm-7 3.5h7v1.5h-7V11Zm7 3.5h-7V16h7v-1.5Z"></path>
&#x9;<path d="M17 4H7a2 2 0 0 0-2 2v12a2 2 0 0 0 2 2h10a2 2 0 0 0 2-2V6a2 2 0 0 0-2-2ZM7 5.5h10a.5.5 0 0 1 .5.5v12a.5.5 0 0 1-.5.5H7a.5.5 0 0 1-.5-.5V6a.5.5 0 0 1 .5-.5Z"></path></symbol>
  <symbol id="i-post" viewBox="0 0 24 24">&#x9;<path d="m7.3 9.7 1.4 1.4c.2-.2.3-.3.4-.5 0 0 0-.1.1-.1.3-.5.4-1.1.3-1.6L12 7 9 4 7.2 6.5c-.6-.1-1.1 0-1.6.3 0 0-.1 0-.1.1-.3.1-.4.2-.6.4l1.4 1.4L4 11v1h1l2.3-2.3zM4 20h9v-1.5H4V20zm0-5.5V16h16v-1.5H4z"></path></symbol>
  <symbol id="i-comment" viewBox="0 0 24 24">&#x9;<path d="M18 4H6c-1.1 0-2 .9-2 2v12.9c0 .6.5 1.1 1.1 1.1.3 0 .5-.1.8-.3L8.5 17H18c1.1 0 2-.9 2-2V6c0-1.1-.9-2-2-2zm.5 11c0 .3-.2.5-.5.5H7.9l-2.4 2.4V6c0-.3.2-.5.5-.5h12c.3 0 .5.2.5.5v9z"></path></symbol>
  <symbol id="i-globe" viewBox="0 0 24 24">&#x9;<path d="M12 4c-4.4 0-8 3.6-8 8s3.6 8 8 8 8-3.6 8-8-3.6-8-8-8Zm6.5 8c0 .6 0 1.2-.2 1.8h-2.7c0-.6.2-1.1.2-1.8s0-1.2-.2-1.8h2.7c.2.6.2 1.1.2 1.8Zm-.9-3.2h-2.4c-.3-.9-.7-1.8-1.1-2.4-.1-.2-.2-.4-.3-.5 1.6.5 3 1.6 3.8 3ZM12.8 17c-.3.5-.6 1-.8 1.3-.2-.3-.5-.8-.8-1.3-.3-.5-.6-1.1-.8-1.7h3.3c-.2.6-.5 1.2-.8 1.7Zm-2.9-3.2c-.1-.6-.2-1.1-.2-1.8s0-1.2.2-1.8H14c.1.6.2 1.1.2 1.8s0 1.2-.2 1.8H9.9ZM11.2 7c.3-.5.6-1 .8-1.3.2.3.5.8.8 1.3.3.5.6 1.1.8 1.7h-3.3c.2-.6.5-1.2.8-1.7Zm-1-1.2c-.1.2-.2.3-.3.5-.4.7-.8 1.5-1.1 2.4H6.4c.8-1.4 2.2-2.5 3.8-3Zm-1.8 8H5.7c-.2-.6-.2-1.1-.2-1.8s0-1.2.2-1.8h2.7c0 .6-.2 1.1-.2 1.8s0 1.2.2 1.8Zm-2 1.4h2.4c.3.9.7 1.8 1.1 2.4.1.2.2.4.3.5-1.6-.5-3-1.6-3.8-3Zm7.4 3c.1-.2.2-.3.3-.5.4-.7.8-1.5 1.1-2.4h2.4c-.8 1.4-2.2 2.5-3.8 3Z"></path></symbol>
  <symbol id="i-home" viewBox="0 0 24 24">&#x9;<path d="M12 4L4 7.9V20h16V7.9L12 4zm6.5 14.5H14V13h-4v5.5H5.5V8.8L12 5.7l6.5 3.1v9.7z"></path></symbol>
  <symbol id="i-people" viewBox="0 0 24 24">&#x9;<path fill-rule="evenodd" d="M15.5 9.5a1 1 0 100-2 1 1 0 000 2zm0 1.5a2.5 2.5 0 100-5 2.5 2.5 0 000 5zm-2.25 6v-2a2.75 2.75 0 00-2.75-2.75h-4A2.75 2.75 0 003.75 15v2h1.5v-2c0-.69.56-1.25 1.25-1.25h4c.69 0 1.25.56 1.25 1.25v2h1.5zm7-2v2h-1.5v-2c0-.69-.56-1.25-1.25-1.25H15v-1.5h2.5A2.75 2.75 0 0120.25 15zM9.5 8.5a1 1 0 11-2 0 1 1 0 012 0zm1.5 0a2.5 2.5 0 11-5 0 2.5 2.5 0 015 0z"></path></symbol>
  <symbol id="i-block-default" viewBox="0 0 24 24">&#x9;<path d="M19 8h-1V6h-5v2h-2V6H6v2H5c-1.1 0-2 .9-2 2v8c0 1.1.9 2 2 2h14c1.1 0 2-.9 2-2v-8c0-1.1-.9-2-2-2zm.5 10c0 .3-.2.5-.5.5H5c-.3 0-.5-.2-.5-.5v-8c0-.3.2-.5.5-.5h14c.3 0 .5.2.5.5v8z"></path></symbol>
  <symbol id="i-layout" viewBox="0 0 24 24">&#x9;<path d="M18 5.5H6a.5.5 0 00-.5.5v3h13V6a.5.5 0 00-.5-.5zm.5 5H10v8h8a.5.5 0 00.5-.5v-7.5zm-10 0h-3V18a.5.5 0 00.5.5h2.5v-8zM6 4h12a2 2 0 012 2v12a2 2 0 01-2 2H6a2 2 0 01-2-2V6a2 2 0 012-2z"></path></symbol>
  <symbol id="i-upload" viewBox="0 0 24 24">&#x9;<path d="M18.5 15v3.5H13V6.7l4.5 4.1 1-1.1-6.2-5.8-5.8 5.8 1 1.1 4-4v11.7h-6V15H4v5h16v-5z"></path></symbol>
  <symbol id="i-more-vertical" viewBox="0 0 24 24">&#x9;<path d="M13 19h-2v-2h2v2zm0-6h-2v-2h2v2zm0-6h-2V5h2v2z"></path></symbol>
  <symbol id="i-more-horizontal" viewBox="0 0 24 24">&#x9;<path d="M11 13h2v-2h-2v2zm-6 0h2v-2H5v2zm12-2v2h2v-2h-2z"></path></symbol>
  <symbol id="i-check" viewBox="0 0 24 24">&#x9;<path d="M16.5 7.5 10 13.9l-2.5-2.4-1 1 3.5 3.6 7.5-7.6z"></path></symbol>
  <symbol id="i-close" viewBox="0 0 24 24">&#x9;<path d="m13.06 12 6.47-6.47-1.06-1.06L12 10.94 5.53 4.47 4.47 5.53 10.94 12l-6.47 6.47 1.06 1.06L12 13.06l6.47 6.47 1.06-1.06L13.06 12Z"></path></symbol>
  <symbol id="i-chevron-down" viewBox="0 0 24 24">&#x9;<path d="M17.5 11.6L12 16l-5.5-4.4.9-1.2L12 14l4.5-3.6 1 1.2z"></path></symbol>
  <symbol id="i-chevron-right" viewBox="0 0 24 24">&#x9;<path d="M10.6 6L9.4 7l4.6 5-4.6 5 1.2 1 5.4-6z"></path></symbol>
  <symbol id="i-chevron-left" viewBox="0 0 24 24">&#x9;<path d="M14.6 7l-1.2-1L8 12l5.4 6 1.2-1-4.6-5z"></path></symbol>
  <symbol id="i-chevron-up" viewBox="0 0 24 24">&#x9;<path d="M6.5 12.4L12 8l5.5 4.4-.9 1.2L12 10l-4.5 3.6-1-1.2z"></path></symbol>
  <symbol id="i-info" viewBox="0 0 24 24">&#x9;<path fill-rule="evenodd" clip-rule="evenodd" d="M5.5 12a6.5 6.5 0 1 0 13 0 6.5 6.5 0 0 0-13 0ZM12 4a8 8 0 1 0 0 16 8 8 0 0 0 0-16Zm.75 4v1.5h-1.5V8h1.5Zm0 8v-5h-1.5v5h1.5Z"></path></symbol>
  <symbol id="i-caution" viewBox="0 0 24 24">&#x9;<path fill-rule="evenodd" clip-rule="evenodd" d="M5.5 12a6.5 6.5 0 1 0 13 0 6.5 6.5 0 0 0-13 0ZM12 4a8 8 0 1 0 0 16 8 8 0 0 0 0-16Zm-.75 12v-1.5h1.5V16h-1.5Zm0-8v5h1.5V8h-1.5Z"></path></symbol>
  <symbol id="i-cancel-circle-filled" viewBox="0 0 24 24">&#x9;<path d="M12 4c-4.4 0-8 3.6-8 8s3.6 8 8 8 8-3.6 8-8-3.6-8-8-8Zm3.8 10.7-1.1 1.1-2.7-2.7-2.7 2.7-1.1-1.1 2.7-2.7-2.7-2.7 1.1-1.1 2.7 2.7 2.7-2.7 1.1 1.1-2.7 2.7 2.7 2.7Z"></path></symbol>
  <symbol id="i-tool" viewBox="0 0 24 24">&#x9;<path d="M14.103 7.128l2.26-2.26a4 4 0 00-5.207 4.804L5.828 15a2 2 0 102.828 2.828l5.329-5.328a4 4 0 004.804-5.208l-2.261 2.26-1.912-.512-.513-1.912zm-7.214 9.64a.5.5 0 11.707-.707.5.5 0 01-.707.707z"></path></symbol>
  <symbol id="i-wordpress" viewBox="-2 -2 24 24">&#x9;<path d="M20 10c0-5.51-4.49-10-10-10C4.48 0 0 4.49 0 10c0 5.52 4.48 10 10 10 5.51 0 10-4.48 10-10zM7.78 15.37L4.37 6.22c.55-.02 1.17-.08 1.17-.08.5-.06.44-1.13-.06-1.11 0 0-1.45.11-2.37.11-.18 0-.37 0-.58-.01C4.12 2.69 6.87 1.11 10 1.11c2.33 0 4.45.87 6.05 2.34-.68-.11-1.65.39-1.65 1.58 0 .74.45 1.36.9 2.1.35.61.55 1.36.55 2.46 0 1.49-1.4 5-1.4 5l-3.03-8.37c.54-.02.82-.17.82-.17.5-.05.44-1.25-.06-1.22 0 0-1.44.12-2.38.12-.87 0-2.33-.12-2.33-.12-.5-.03-.56 1.2-.06 1.22l.92.08 1.26 3.41zM17.41 10c.24-.64.74-1.87.43-4.25.7 1.29 1.05 2.71 1.05 4.25 0 3.29-1.73 6.24-4.4 7.78.97-2.59 1.94-5.2 2.92-7.78zM6.1 18.09C3.12 16.65 1.11 13.53 1.11 10c0-1.3.23-2.48.72-3.59C3.25 10.3 4.67 14.2 6.1 18.09zm4.03-6.63l2.58 6.98c-.86.29-1.76.45-2.71.45-.79 0-1.57-.11-2.29-.33.81-2.38 1.62-4.74 2.42-7.1z"></path></symbol>
  <symbol id="i-menu" viewBox="0 0 24 24">&#x9;<path d="M5 5v1.5h14V5H5zm0 7.8h14v-1.5H5v1.5zM5 19h14v-1.5H5V19z"></path></symbol>
  <symbol id="i-external" viewBox="0 0 24 24">&#x9;<path d="M19.5 4.5h-7V6h4.44l-5.97 5.97 1.06 1.06L18 7.06v4.44h1.5v-7Zm-13 1a2 2 0 0 0-2 2v10a2 2 0 0 0 2 2h10a2 2 0 0 0 2-2v-3H17v3a.5.5 0 0 1-.5.5h-10a.5.5 0 0 1-.5-.5v-10a.5.5 0 0 1 .5-.5h3V5.5h-3Z"></path></symbol>
  <symbol id="i-drag-handle" viewBox="0 0 24 24">&#x9;<path d="M8 7h2V5H8v2zm0 6h2v-2H8v2zm0 6h2v-2H8v2zm6-14v2h2V5h-2zm0 8h2v-2h-2v2zm0 6h2v-2h-2v2z"></path></symbol>
  <symbol id="i-lock" viewBox="0 0 24 24">&#x9;<path d="M17 10h-1.2V7c0-2.1-1.7-3.8-3.8-3.8-2.1 0-3.8 1.7-3.8 3.8v3H7c-.6 0-1 .4-1 1v8c0 .6.4 1 1 1h10c.6 0 1-.4 1-1v-8c0-.6-.4-1-1-1zm-2.8 0H9.8V7c0-1.2 1-2.2 2.2-2.2s2.2 1 2.2 2.2v3z"></path></symbol>
  <symbol id="i-symbol" viewBox="0 0 24 24">&#x9;<path d="M21.3 10.8l-5.6-5.6c-.7-.7-1.8-.7-2.5 0l-5.6 5.6c-.7.7-.7 1.8 0 2.5l5.6 5.6c.3.3.8.5 1.2.5s.9-.2 1.2-.5l5.6-5.6c.8-.7.8-1.9.1-2.5zm-1 1.4l-5.6 5.6c-.1.1-.3.1-.4 0l-5.6-5.6c-.1-.1-.1-.3 0-.4l5.6-5.6s.1-.1.2-.1.1 0 .2.1l5.6 5.6c.1.1.1.3 0 .4zm-16.6-.4L10 5.5l-1-1-6.3 6.3c-.7.7-.7 1.8 0 2.5L9 19.5l1.1-1.1-6.3-6.3c-.2 0-.2-.2-.1-.3z"></path></symbol>
</svg>